<svg id="Capa_1" enable-background="new 0 0 512 512" height="512" viewBox="0 0 512 512" width="512" xmlns="http://www.w3.org/2000/svg"><path d="m303.182 402.613c-31.821 0-62.732-5.576-91.873-16.573-28.329-10.69-53.816-26.036-75.756-45.609-22.186-19.794-39.643-42.926-51.887-68.754-4.829-10.186-8.758-20.614-11.782-31.242-43.244 24.844-71.884 68.174-71.884 117.475 0 41.472 20.273 78.714 52.451 104.288-7.973 13.105-18.901 23.241-28.176 30.271-7.051 5.345-4.279 16.432 4.449 17.884 6.636 1.103 13.283 1.647 19.858 1.647 23.524 0 46.075-6.968 63.46-20.187 14.094 3.719 29.012 5.725 44.458 5.725 68.917 0 127.429-39.745 148.314-94.946-.544.003-1.088.021-1.632.021z"/><path d="m485.529 370.153c-13.376-9.329-31.12-24.324-43.514-44.696 42.935-34.122 69.985-83.814 69.985-139.151 0-102.894-93.491-186.306-208.818-186.306s-208.818 83.412-208.818 186.306 93.491 186.306 208.818 186.306c20.609 0 40.515-2.677 59.32-7.639 23.198 17.639 53.286 26.936 84.675 26.936 11.482 0 23.135-1.243 34.692-3.777 8.549-1.874 10.838-12.972 3.66-17.979zm-155.351-250.541c0-8.284 6.716-15 15-15s15 6.716 15 15v37.7c0 8.284-6.716 15-15 15s-15-6.716-15-15zm-90.481-.471c0-8.284 6.716-15 15-15s15 6.716 15 15v37.7c0 8.284-6.716 15-15 15s-15-6.716-15-15zm155.237 142.238c-24.752 20.36-57.484 31.573-92.169 31.573-34.684 0-67.417-11.213-92.168-31.573-25.603-21.06-39.702-49.314-39.702-79.562 0-8.284 6.716-15 15-15s15 6.716 15 15c0 44.738 45.698 81.135 101.87 81.135s101.87-36.396 101.87-81.135c0-8.284 6.716-15 15-15s15 6.716 15 15c0 30.247-14.1 58.502-39.701 79.562z"/></svg>