<svg height="512pt" viewBox="0 -16 512 512" width="512pt" xmlns="http://www.w3.org/2000/svg"><path d="m449.886719 175.925781c-9.636719-98.582031-92.816407-175.925781-193.886719-175.925781-100.769531 0-183.753906 76.886719-193.796875 175.046875l-1.203125 4.953125v180h75c24.8125 0 45-20.1875 45-45v-90c0-24.8125-20.1875-45-45-45h-44.238281c7.609375-83.96875 78.320312-150 164.238281-150s156.628906 66.03125 164.238281 150h-44.238281c-24.8125 0-45 20.1875-45 45v90c0 24.8125 20.1875 45 45 45h45v45c0 8.277344-6.722656 15-15 15h-77.761719c-6.214843-17.421875-22.707031-30-42.238281-30h-60c-24.8125 0-45 20.1875-45 45s20.1875 45 45 45h60c19.53125 0 36.023438-12.578125 42.238281-30h77.761719c24.8125 0 45-20.1875 45-45 0-48.011719 0-177.003906 0-225zm0 0"/><path d="m0 210h31v120h-31zm0 0"/><path d="m481 210h31v120h-31zm0 0"/></svg>